<svg id="svg" version="1.1" xmlns="http://www.w3.org/2000/svg" xmlns:xlink="http://www.w3.org/1999/xlink" width="400" height="400" viewBox="0, 0, 400,400"><g id="svgg"><path id="path0" d="M297.181 33.615 C 289.759 35.413,288.304 38.661,288.088 53.909 L 287.935 64.727 295.041 64.727 L 302.147 64.727 302.255 55.464 C 302.390 43.918,302.016 44.614,308.195 44.417 C 316.551 44.152,316.364 43.941,316.364 53.670 C 316.364 67.167,316.738 66.148,300.658 96.416 L 288.364 119.560 288.364 125.053 L 288.364 130.545 309.818 130.545 L 331.273 130.545 331.273 124.909 L 331.273 119.273 317.790 119.273 L 304.307 119.273 312.390 103.364 C 316.836 94.614,321.986 84.497,323.834 80.882 C 329.647 69.513,330.694 65.148,330.714 52.182 C 330.734 38.965,329.068 35.558,321.651 33.649 C 318.822 32.921,300.154 32.895,297.181 33.615 M193.685 39.364 C 146.193 98.691,122.182 175.845,122.193 269.091 C 122.194 283.803,123.398 312.364,124.017 312.364 C 124.157 312.364,127.238 309.552,130.863 306.116 L 137.455 299.868 137.431 298.207 C 137.417 297.293,137.128 290.320,136.787 282.711 C 136.141 268.308,136.241 260.659,137.441 232.783 C 139.431 186.550,152.179 143.351,175.067 105.273 C 178.123 100.190,197.345 71.062,198.529 69.722 C 198.748 69.474,218.240 98.605,222.804 106.000 C 241.988 137.083,254.880 174.900,259.064 212.364 C 260.451 224.778,261.838 257.363,261.006 257.979 C 260.721 258.191,243.178 273.255,222.021 291.455 L 183.555 324.545 210.573 324.639 C 227.856 324.698,237.670 324.604,237.810 324.377 C 237.931 324.182,239.306 316.776,240.866 307.920 C 242.926 296.226,243.868 291.657,244.306 291.229 C 244.638 290.904,251.842 284.378,260.315 276.725 L 275.721 262.811 275.482 256.042 C 272.866 181.994,255.403 121.590,220.457 65.710 C 213.841 55.131,198.995 34.182,198.114 34.182 C 197.960 34.182,195.967 36.514,193.685 39.364 M195.039 107.750 C 185.063 123.432,173.586 146.851,170.013 158.818 L 169.769 159.636 198.885 159.636 C 218.429 159.636,228.000 159.514,228.000 159.266 C 228.000 157.573,219.656 138.392,215.200 129.840 C 210.394 120.615,199.399 102.545,198.592 102.545 C 198.459 102.545,196.860 104.887,195.039 107.750 M163.812 178.636 C 162.766 181.507,159.350 198.278,158.200 206.182 C 155.211 226.734,154.005 259.437,155.225 286.909 C 155.655 296.609,156.006 305.216,156.004 306.035 C 156.000 307.523,155.985 307.540,140.979 321.800 L 125.957 336.076 126.616 341.765 C 127.889 352.746,129.885 366.731,130.232 367.091 C 130.582 367.455,265.714 367.499,266.077 367.135 C 266.641 366.571,270.700 339.714,272.157 326.909 C 273.481 315.277,275.564 288.491,275.171 288.152 C 275.007 288.009,261.329 300.596,260.901 301.284 C 260.655 301.678,258.839 311.205,256.865 322.456 L 253.275 342.912 200.741 342.819 L 148.207 342.727 146.606 338.465 C 145.726 336.121,145.092 333.976,145.198 333.699 C 145.305 333.422,167.343 314.314,194.173 291.238 L 242.955 249.281 242.743 244.913 C 242.626 242.511,242.368 236.782,242.168 232.182 C 241.411 214.713,239.376 200.067,235.413 183.564 L 234.121 178.182 199.049 178.182 C 171.322 178.182,163.943 178.277,163.812 178.636 " stroke="none" fill="#fbfbfb" fill-rule="evenodd"></path><path id="path1" d="M0.000 200.000 L 0.000 400.000 200.000 400.000 L 400.000 400.000 400.000 200.000 L 400.000 0.000 200.000 0.000 L 0.000 0.000 0.000 200.000 M321.651 33.649 C 329.068 35.558,330.734 38.965,330.714 52.182 C 330.694 65.148,329.647 69.513,323.834 80.882 C 321.986 84.497,316.836 94.614,312.390 103.364 L 304.307 119.273 317.790 119.273 L 331.273 119.273 331.273 124.909 L 331.273 130.545 309.818 130.545 L 288.364 130.545 288.364 125.053 L 288.364 119.560 300.658 96.416 C 316.738 66.148,316.364 67.167,316.364 53.670 C 316.364 43.941,316.551 44.152,308.195 44.417 C 302.016 44.614,302.390 43.918,302.255 55.464 L 302.147 64.727 295.041 64.727 L 287.935 64.727 288.088 53.909 C 288.304 38.661,289.759 35.413,297.181 33.615 C 300.154 32.895,318.822 32.921,321.651 33.649 M202.967 40.273 C 249.326 102.029,272.474 170.907,275.482 256.042 L 275.721 262.811 260.315 276.725 C 251.842 284.378,244.638 290.904,244.306 291.229 C 243.868 291.657,242.926 296.226,240.866 307.920 C 239.306 316.776,237.931 324.182,237.810 324.377 C 237.670 324.604,227.856 324.698,210.573 324.639 L 183.555 324.545 222.021 291.455 C 243.178 273.255,260.721 258.191,261.006 257.979 C 261.838 257.363,260.451 224.778,259.064 212.364 C 254.880 174.900,241.988 137.083,222.804 106.000 C 218.240 98.605,198.748 69.474,198.529 69.722 C 197.345 71.062,178.123 100.190,175.067 105.273 C 152.179 143.351,139.431 186.550,137.441 232.783 C 136.241 260.659,136.141 268.308,136.787 282.711 C 137.128 290.320,137.417 297.293,137.431 298.207 L 137.455 299.868 130.863 306.116 C 127.238 309.552,124.157 312.364,124.017 312.364 C 123.398 312.364,122.194 283.803,122.193 269.091 C 122.183 181.107,143.435 107.817,185.828 49.636 C 190.215 43.615,197.715 34.182,198.114 34.182 C 198.269 34.182,200.453 36.923,202.967 40.273 M202.462 108.107 C 212.002 122.733,219.504 137.233,225.677 152.971 C 226.955 156.229,228.000 159.062,228.000 159.266 C 228.000 159.514,218.429 159.636,198.885 159.636 L 169.769 159.636 170.013 158.818 C 172.561 150.286,182.083 129.629,188.902 117.841 C 192.366 111.852,198.262 102.545,198.592 102.545 C 198.726 102.545,200.467 105.048,202.462 108.107 M235.413 183.564 C 239.376 200.067,241.411 214.713,242.168 232.182 C 242.368 236.782,242.626 242.511,242.743 244.913 L 242.955 249.281 194.173 291.238 C 167.343 314.314,145.305 333.422,145.198 333.699 C 145.092 333.976,145.726 336.121,146.606 338.465 L 148.207 342.727 200.741 342.819 L 253.275 342.912 256.865 322.456 C 258.839 311.205,260.655 301.678,260.901 301.284 C 261.329 300.596,275.007 288.009,275.171 288.152 C 275.564 288.491,273.481 315.277,272.157 326.909 C 270.700 339.714,266.641 366.571,266.077 367.135 C 265.714 367.499,130.582 367.455,130.232 367.091 C 129.885 366.731,127.889 352.746,126.616 341.765 L 125.957 336.076 140.979 321.800 C 155.985 307.540,156.000 307.523,156.004 306.035 C 156.006 305.216,155.655 296.609,155.225 286.909 C 154.005 259.437,155.211 226.734,158.200 206.182 C 159.350 198.278,162.766 181.507,163.812 178.636 C 163.943 178.277,171.322 178.182,199.049 178.182 L 234.121 178.182 235.413 183.564 " stroke="none" fill="#242424" fill-rule="evenodd"></path></g></svg>